<?xml version="1.0" encoding="utf-8"?>
<!-- Generator: Adobe Illustrator 23.0.1, SVG Export Plug-In . SVG Version: 6.00 Build 0)  -->
<svg version="1.1" id="Layer_1" xmlns="http://www.w3.org/2000/svg" xmlns:xlink="http://www.w3.org/1999/xlink" x="0px" y="0px"
	 viewBox="0 0 40 40" style="enable-background:new 0 0 40 40;" xml:space="preserve">
<style type="text/css">
	.st0{display:none;opacity:0.64;}
	.st1{display:inline;}
	.st2{opacity:0.8;fill:url(#SVGID_1_);}
	.st3{opacity:0.8;fill:url(#SVGID_2_);}
	.st4{fill-rule:evenodd;clip-rule:evenodd;fill:url(#SVGID_3_);}
	.st5{fill:none;stroke:#61647E;stroke-width:0.6;stroke-miterlimit:10;}
	.st6{fill-rule:evenodd;clip-rule:evenodd;fill:none;stroke:#61647E;stroke-width:0.6;stroke-miterlimit:10;}
	.st7{fill-rule:evenodd;clip-rule:evenodd;fill:#60647E;}
</style>
<g id="logoType" class="st0">
	<g id="logo" class="st1">
		<linearGradient id="SVGID_1_" gradientUnits="userSpaceOnUse" x1="-0.4796" y1="14.7141" x2="24.2135" y2="39.4072">
			<stop  offset="0" style="stop-color:#61647E;stop-opacity:0.2"/>
			<stop  offset="0.76" style="stop-color:#61647E"/>
		</linearGradient>
		<path class="st2" d="M32.2,31.5L32.2,31.5 M32.2,31.5L32.2,31.5L32.2,31.5C32.2,31.5,32.2,31.5,32.2,31.5 M3.5,14.2
			c-4.8,0-8.6,3.9-8.6,8.6c0,4.8,4.6,8.6,9.4,8.6l27.8,0C16.4,31.5,15,14.2,3.5,14.2"/>
		<linearGradient id="SVGID_2_" gradientUnits="userSpaceOnUse" x1="35.3884" y1="7.8028" x2="17.1861" y2="39.33">
			<stop  offset="0" style="stop-color:#61647E;stop-opacity:0.3"/>
			<stop  offset="1" style="stop-color:#61647E"/>
		</linearGradient>
		<path class="st3" d="M33.6,8.5c-12.2,0-18.7,22.9-30,22.9l28.6,0c0,0,0.1,0,0.1,0c6.3,0,12.8-5.1,12.8-11.5
			C45.1,13.7,39.9,8.5,33.6,8.5"/>
		<linearGradient id="SVGID_3_" gradientUnits="userSpaceOnUse" x1="22.3339" y1="25.9399" x2="45.0518" y2="25.9399">
			<stop  offset="0" style="stop-color:#61647E"/>
			<stop  offset="0.9996" style="stop-color:#61647E;stop-opacity:0"/>
		</linearGradient>
		<path class="st4" d="M45.1,20.6c-0.4,6.1-6.8,10.9-12.7,10.9l-10.1,0C33.1,31.3,38.1,18.8,45.1,20.6z"/>
	</g>
</g>
<g id="logoType_1_">
	<g id="logo_1_">
		<path class="st5" d="M29.3,23.9L29.3,23.9 M29.3,23.9L29.3,23.9L29.3,23.9C29.3,23.9,29.3,23.9,29.3,23.9 M7.3,10.7
			c-3.6,0-6.6,3-6.6,6.6c0,3.6,3.6,6.6,7.2,6.6l21.3,0C17.2,23.9,16.1,10.7,7.3,10.7"/>
		<path class="st5" d="M30.4,6.3C21,6.3,16,23.9,7.3,23.9l21.9,0c0,0,0.1,0,0.1,0c4.8,0,9.8-3.9,9.8-8.8
			C39.2,10.2,35.2,6.3,30.4,6.3"/>
		<path class="st6" d="M39.2,15.6c-0.3,4.7-5.2,8.3-9.7,8.3l-7.7,0C30,23.8,33.8,14.2,39.2,15.6z"/>
	</g>
</g>
<g id="type_2_">
	<g>
		<path class="st7" d="M10.8,36.6H9.6c-0.4,0-0.7-0.2-1-0.4c-0.3-0.3-0.4-0.6-0.4-1v-0.7c0-0.4,0.2-0.7,0.4-1c0.3-0.3,0.6-0.4,1-0.4
			h0.6c0.3,0,0.5-0.2,0.5-0.5v0c0-0.1-0.1-0.1-0.1-0.1h-1c-0.6,0-1.1,0.2-1.5,0.6l0,0c-0.4,0.4-0.6,0.9-0.6,1.5v0.7
			c0,0.6,0.2,1.1,0.6,1.5C8.5,37,9,37.3,9.6,37.3h1.6c0.1,0,0.1-0.1,0.1-0.1v0C11.4,36.8,11.1,36.6,10.8,36.6z M27.5,32.4L27.5,32.4
			c-0.3,0-0.6,0.2-0.6,0.5v2.2c0,0.4-0.1,0.8-0.4,1c-0.2,0.2-0.5,0.4-0.8,0.4h-0.5h-0.5c-0.3,0-0.6-0.1-0.8-0.4
			c-0.2-0.3-0.4-0.6-0.4-1v-2.2c0-0.3-0.2-0.5-0.5-0.5h0c-0.1,0-0.1,0.1-0.1,0.1v2.6c0,0.6,0.2,1.1,0.5,1.5c0.3,0.4,0.8,0.6,1.3,0.6
			h0.5h0.5c0.5,0,1-0.2,1.3-0.6c0.3-0.4,0.5-0.9,0.5-1.5v-2.6C27.6,32.4,27.5,32.4,27.5,32.4z M31.9,33c-0.4-0.4-0.9-0.6-1.5-0.6
			h-0.6c-0.1,0-0.1,0.1-0.1,0.1v0c0,0.3,0.2,0.5,0.5,0.5h0.2c0.4,0,0.7,0.2,1,0.4c0.3,0.3,0.4,0.6,0.4,1v0.7c0,0.4-0.2,0.7-0.4,1
			l0,0c-0.3,0.3-0.6,0.4-1,0.4h-0.9c-0.3,0-0.5,0.2-0.5,0.5v0c0,0.1,0.1,0.1,0.1,0.1h1.3c0.6,0,1.1-0.2,1.5-0.6l0,0
			c0.4-0.4,0.6-0.9,0.6-1.5v-0.7C32.5,33.9,32.2,33.4,31.9,33z M19.7,32.4H19c-0.6,0-1.1,0.2-1.5,0.6l0,0c-0.4,0.4-0.6,0.9-0.6,1.5
			v0.7c0,0.6,0.2,1.1,0.6,1.5c0.4,0.4,0.9,0.6,1.5,0.6h0.6c0.6,0,1.1-0.2,1.5-0.6c0.4-0.4,0.6-0.9,0.6-1.5l0-0.7
			c0-0.6-0.2-1.1-0.6-1.5C20.8,32.6,20.3,32.4,19.7,32.4z M20.7,36.1c-0.3,0.3-0.6,0.4-1,0.4H19c-0.4,0-0.7-0.2-1-0.4
			c-0.3-0.3-0.4-0.6-0.4-1v-0.7c0-0.4,0.2-0.7,0.4-1c0.3-0.3,0.6-0.4,1-0.4h0.7c0.4,0,0.7,0.2,1,0.4c0.3,0.3,0.4,0.6,0.4,1l0,0.7
			C21.1,35.5,20.9,35.9,20.7,36.1z M15.7,36.6h-1v0c-0.3,0-0.6-0.1-0.8-0.4c-0.2-0.3-0.4-0.6-0.4-1v-0.5v0v-1.5v0v0v-0.6
			c0-0.1-0.1-0.1-0.1-0.1h0c-0.3,0-0.5,0.2-0.5,0.5V35c0,0,0,0,0,0l0,0.1c0,0.6,0.2,1.1,0.5,1.5c0.3,0.4,0.7,0.6,1.2,0.6l0,0h0l0,0
			h0h0h1.4c0.1,0,0.1-0.1,0.1-0.1v0C16.3,36.8,16,36.6,15.7,36.6z"/>
	</g>
</g>
</svg>
