<?xml version="1.0" encoding="utf-8"?>
<!-- Generator: Adobe Illustrator 23.0.1, SVG Export Plug-In . SVG Version: 6.00 Build 0)  -->
<svg version="1.1" id="Layer_1" xmlns="http://www.w3.org/2000/svg" xmlns:xlink="http://www.w3.org/1999/xlink" x="0px" y="0px"
	 viewBox="0 0 182.1 148.1" style="enable-background:new 0 0 182.1 148.1;" xml:space="preserve">
<style type="text/css">
	.st0{fill:url(#SVGID_1_);}
	.st1{opacity:0.9;fill:url(#SVGID_2_);}
	.st2{fill-rule:evenodd;clip-rule:evenodd;fill:url(#SVGID_3_);}
	.st3{fill-rule:evenodd;clip-rule:evenodd;fill:#60647E;}
</style>
<g id="logoType_1_">
	<g id="logo_1_">
		<linearGradient id="SVGID_1_" gradientUnits="userSpaceOnUse" x1="90.4979" y1="44.5231" x2="42.627" y2="92.394">
			<stop  offset="0" style="stop-color:#385CA9;stop-opacity:0.9"/>
			<stop  offset="1" style="stop-color:#94479A"/>
		</linearGradient>
		<path class="st0" d="M127.7,81.7L127.7,81.7 M127.7,81.7L127.7,81.7L127.7,81.7C127.7,81.7,127.7,81.7,127.7,81.7 M41.5,29.9
			c-14.3,0-25.9,11.6-25.9,25.9c0,14.3,14,25.9,28.3,25.9l83.7,0C80.2,81.7,75.9,29.9,41.5,29.9"/>
		<linearGradient id="SVGID_2_" gradientUnits="userSpaceOnUse" x1="41.5261" y1="47.2039" x2="166.4588" y2="47.2039">
			<stop  offset="0" style="stop-color:#31C4F3"/>
			<stop  offset="7.072967e-02" style="stop-color:#33B4E8"/>
			<stop  offset="0.273" style="stop-color:#388BCC"/>
			<stop  offset="0.4714" style="stop-color:#3D6BB6"/>
			<stop  offset="0.6622" style="stop-color:#4054A7"/>
			<stop  offset="0.8422" style="stop-color:#41479D"/>
			<stop  offset="1" style="stop-color:#42429A"/>
		</linearGradient>
		<path class="st1" d="M132,12.7c-36.8,0-56.4,69-90.5,69l86.1,0c0.1,0,0.3,0,0.4,0c19,0,38.5-15.5,38.5-34.5
			C166.5,28.2,151,12.7,132,12.7"/>
		<linearGradient id="SVGID_3_" gradientUnits="userSpaceOnUse" x1="98.0712" y1="65.0848" x2="166.4588" y2="65.0848">
			<stop  offset="0" style="stop-color:#31C4F3"/>
			<stop  offset="0.1251" style="stop-color:#32BFF0;stop-opacity:0.8436"/>
			<stop  offset="0.2695" style="stop-color:#33B1E6;stop-opacity:0.6631"/>
			<stop  offset="0.4235" style="stop-color:#369AD6;stop-opacity:0.4706"/>
			<stop  offset="0.5841" style="stop-color:#3B7AC0;stop-opacity:0.2699"/>
			<stop  offset="0.7483" style="stop-color:#4051A4;stop-opacity:6.460786e-02"/>
			<stop  offset="0.8" style="stop-color:#42429A;stop-opacity:0"/>
		</linearGradient>
		<path class="st2" d="M166.5,49c-1.2,18.3-20.4,32.8-38.1,32.7l-30.3,0C130.5,81.3,145.5,43.6,166.5,49z"/>
	</g>
	<g id="type_2_">
		<g>
			<path class="st3" d="M68.2,109.3H69v-4.7h1.3v-0.7H69v-0.4c0-0.4,0.1-0.6,0.3-0.8c0.2-0.2,0.5-0.3,0.9-0.3h0.1v-0.8h-0.1
				c-0.6,0-1.1,0.1-1.5,0.4c-0.4,0.3-0.5,0.7-0.5,1.3v0.5h-0.9v0.7h0.9V109.3z M107.7,108.6h-3.2l3.2-3.9v-0.8h-4.2v0.7h3.2
				l-3.2,3.9v0.8h4.3V108.6z M99.3,104.8c-0.4-0.6-1.1-1-1.9-1s-1.5,0.3-2,0.8c-0.5,0.5-0.7,1.2-0.7,2c0,0.8,0.2,1.4,0.7,2
				c0.5,0.5,1.1,0.8,1.9,0.8c0.9,0,1.5-0.3,1.9-1v0.9h0.8v-5.4h-0.8V104.8z M98.8,108.1c-0.3,0.4-0.8,0.6-1.4,0.6
				c-0.6,0-1-0.2-1.4-0.6c-0.3-0.4-0.5-0.9-0.5-1.5c0-0.6,0.2-1.1,0.5-1.5c0.4-0.4,0.8-0.6,1.4-0.6c0.6,0,1,0.2,1.4,0.6
				c0.3,0.4,0.5,0.9,0.5,1.5C99.3,107.2,99.1,107.7,98.8,108.1z M87.2,108.4c0.4,0.6,1.1,1,1.9,1c0.8,0,1.5-0.3,1.9-0.8
				c0.5-0.5,0.7-1.2,0.7-2c0-0.8-0.2-1.4-0.7-2c-0.5-0.5-1.1-0.8-1.9-0.8c-0.8,0-1.5,0.3-1.9,1v-3h-0.8v7.6h0.8V108.4z M87.6,105.2
				c0.3-0.4,0.8-0.6,1.4-0.6c0.6,0,1,0.2,1.4,0.6c0.3,0.4,0.5,0.9,0.5,1.5c0,0.6-0.2,1.1-0.5,1.5c-0.4,0.4-0.8,0.6-1.4,0.6
				c-0.6,0-1-0.2-1.4-0.6c-0.3-0.4-0.5-0.9-0.5-1.5C87.1,106,87.3,105.5,87.6,105.2z M53.3,109.4c0.6,0,1.2-0.2,1.6-0.5
				c0.4-0.3,0.7-0.8,0.9-1.3H55c-0.1,0.3-0.3,0.6-0.6,0.8c-0.3,0.2-0.6,0.3-0.9,0.3c-0.6,0-1.1-0.2-1.5-0.6
				c-0.4-0.4-0.5-0.9-0.5-1.5c0-0.6,0.2-1.1,0.5-1.5c0.2-0.2,0.4-0.3,0.6-0.4c0.2-0.1,0.5-0.2,0.9-0.2c0.3,0,0.6,0.1,0.9,0.3
				s0.5,0.4,0.6,0.8h0.9c-0.2-0.5-0.5-1-0.9-1.3c-0.5-0.3-1-0.5-1.6-0.5c-0.8,0-1.4,0.3-1.9,0.8c-0.5,0.5-0.7,1.2-0.7,2
				c0,0.8,0.2,1.5,0.7,2C51.9,109.1,52.5,109.4,53.3,109.4z M129.2,106.9c0-0.6,0.2-1.2,0.5-1.6c0.4-0.5,0.8-0.7,1.4-0.7h0.1v-0.8
				h-0.1c-0.3,0-0.6,0.1-0.9,0.2c-0.6,0.3-0.9,0.7-1.1,1.2v-1.3h-0.8v5.4h0.8V106.9z M75.8,103.8c-0.8,0-1.5,0.3-2,0.8
				c-0.5,0.5-0.7,1.2-0.7,2c0,0.8,0.2,1.5,0.7,2c0.5,0.5,1.2,0.8,2,0.8c0.6,0,1.2-0.2,1.6-0.5c0.4-0.3,0.7-0.7,0.9-1.2h-0.9
				c-0.3,0.6-0.8,0.9-1.6,0.9c-0.5,0-1-0.2-1.3-0.5c-0.3-0.3-0.5-0.7-0.6-1.2h4.5v-0.3c0-0.8-0.2-1.5-0.7-2
				C77.3,104.1,76.6,103.8,75.8,103.8z M74,106.2c0.1-0.5,0.3-0.9,0.6-1.2c0.3-0.3,0.8-0.5,1.3-0.5c0.5,0,0.9,0.2,1.3,0.5
				c0.3,0.3,0.5,0.7,0.6,1.2H74z M123.9,108.4v0.9h0.8v-5.4h-0.8v0.9c-0.4-0.6-1.1-1-1.9-1c-0.8,0-1.5,0.3-2,0.8
				c-0.5,0.5-0.7,1.2-0.7,2c0,0.8,0.2,1.4,0.7,2c0.5,0.5,1.1,0.8,1.9,0.8C122.9,109.4,123.5,109.1,123.9,108.4z M122.1,108.7
				c-0.6,0-1-0.2-1.4-0.6c-0.3-0.4-0.5-0.9-0.5-1.5c0-0.6,0.2-1.1,0.5-1.5c0.4-0.4,0.8-0.6,1.4-0.6c0.6,0,1,0.2,1.4,0.6
				c0.3,0.4,0.5,0.9,0.5,1.5c0,0.6-0.2,1.1-0.5,1.5C123.1,108.5,122.7,108.7,122.1,108.7z M63.3,104.8c-0.4-0.6-1.1-1-1.9-1
				c-0.8,0-1.5,0.3-2,0.8c-0.5,0.5-0.7,1.2-0.7,2c0,0.8,0.2,1.4,0.7,2c0.5,0.5,1.1,0.8,1.9,0.8c0.9,0,1.5-0.3,1.9-1v0.9h0.8v-5.4
				h-0.8V104.8z M62.9,108.1c-0.3,0.4-0.8,0.6-1.4,0.6c-0.6,0-1-0.2-1.4-0.6c-0.3-0.4-0.5-0.9-0.5-1.5c0-0.6,0.2-1.1,0.5-1.5
				c0.4-0.4,0.8-0.6,1.4-0.6c0.6,0,1,0.2,1.4,0.6c0.3,0.4,0.5,0.9,0.5,1.5C63.4,107.2,63.2,107.7,62.9,108.1z M113.3,109.4
				c0.9,0,1.5-0.3,1.9-1v0.9h0.8v-5.4h-0.8v0.9c-0.4-0.6-1.1-1-1.9-1s-1.5,0.3-2,0.8c-0.5,0.5-0.7,1.2-0.7,2c0,0.8,0.2,1.4,0.7,2
				C111.9,109.1,112.5,109.4,113.3,109.4z M112,105.2c0.4-0.4,0.8-0.6,1.4-0.6c0.6,0,1,0.2,1.4,0.6c0.3,0.4,0.5,0.9,0.5,1.5
				c0,0.6-0.2,1.1-0.5,1.5c-0.3,0.4-0.8,0.6-1.4,0.6c-0.6,0-1-0.2-1.4-0.6c-0.3-0.4-0.5-0.9-0.5-1.5
				C111.5,106,111.6,105.5,112,105.2z M58.2,132.8h-4.3c-1.4,0-2.6-0.6-3.5-1.5c-0.9-0.9-1.5-2.2-1.5-3.6v-2.3
				c0-1.4,0.6-2.7,1.5-3.6c0.9-0.9,2.2-1.5,3.6-1.5h2.3c1.1,0,1.9-0.9,1.9-1.9v-0.1c0-0.3-0.2-0.5-0.5-0.5h-3.7
				c-2.1,0-4,0.9-5.3,2.2l0,0c-1.4,1.4-2.2,3.3-2.2,5.4v2.3c0,2.1,0.8,4,2.2,5.4c1.4,1.4,3.3,2.2,5.4,2.2h5.8c0.3,0,0.5-0.2,0.5-0.5
				v-0.1C60.2,133.7,59.3,132.8,58.2,132.8z M117.8,117.9h-0.1c-1.1,0-1.9,0.9-1.9,1.9v8c0,1.4-0.5,2.7-1.3,3.6
				c-0.7,0.9-1.7,1.4-2.8,1.4H108c-1.1,0-2.1-0.5-2.8-1.4c-0.8-0.9-1.3-2.2-1.3-3.6v-8c0-1.1-0.9-1.9-1.9-1.9h-0.1
				c-0.3,0-0.5,0.2-0.5,0.5v9.4c0,2,0.7,3.9,1.9,5.3c1.2,1.4,2.9,2.3,4.8,2.3h3.6c1.9,0,3.6-0.9,4.8-2.3c1.2-1.4,1.9-3.2,1.9-5.3
				v-9.4C118.2,118.1,118,117.9,117.8,117.9z M133.5,120.1c-1.4-1.4-3.3-2.2-5.3-2.2H126c-0.3,0-0.5,0.2-0.5,0.5v0.1
				c0,1.1,0.9,1.9,1.9,1.9h0.7c1.4,0,2.6,0.6,3.5,1.5c0.9,0.9,1.5,2.2,1.5,3.6v2.3c0,1.4-0.6,2.7-1.5,3.6l0,0
				c-0.9,0.9-2.2,1.5-3.5,1.5h-3.1c-1.1,0-1.9,0.9-1.9,1.9v0.1c0,0.3,0.2,0.5,0.5,0.5h4.5c2.1,0,4-0.9,5.3-2.2l0,0
				c1.4-1.4,2.2-3.3,2.2-5.4v-2.3C135.7,123.4,134.9,121.5,133.5,120.1z M90,117.9h-2.3c-2.1,0-4,0.9-5.3,2.2l0,0
				c-1.4,1.4-2.2,3.3-2.2,5.4v2.3c0,2.1,0.8,4,2.2,5.4c1.4,1.4,3.3,2.2,5.4,2.2h2.3c2.1,0,4-0.9,5.3-2.2c1.4-1.4,2.2-3.3,2.2-5.4
				l0-2.3c0-2.1-0.8-4-2.2-5.4C93.9,118.7,92,117.9,90,117.9z M93.5,131.4c-0.9,0.9-2.2,1.5-3.6,1.5h-2.3c-1.4,0-2.6-0.6-3.5-1.5
				c-0.9-0.9-1.5-2.2-1.5-3.6v-2.3c0-1.4,0.6-2.7,1.5-3.6c0.9-0.9,2.2-1.5,3.6-1.5H90c1.4,0,2.6,0.6,3.5,1.5
				c0.9,0.9,1.5,2.2,1.5,3.6l0,2.3C95,129.2,94.4,130.4,93.5,131.4z M75.8,132.8h-3.6v0c-1.1,0-2.1-0.5-2.8-1.4
				c-0.8-0.9-1.3-2.2-1.3-3.6v-9.4c0-0.3-0.2-0.5-0.5-0.5h-0.1c-1.1,0-1.9,0.9-1.9,1.9v7.6c0,0,0,0.1,0,0.1l0,0.2
				c0,2,0.7,3.9,1.9,5.3c1.1,1.3,2.6,2.2,4.4,2.3l0,0h0l0.2,0h5.2c0.3,0,0.5-0.2,0.5-0.5v-0.1C77.7,133.7,76.9,132.8,75.8,132.8z"/>
		</g>
	</g>
</g>
</svg>
