<?xml version="1.0" encoding="utf-8"?>
<!-- Generator: Adobe Illustrator 23.0.1, SVG Export Plug-In . SVG Version: 6.00 Build 0)  -->
<svg version="1.1" id="Layer_1" xmlns="http://www.w3.org/2000/svg" xmlns:xlink="http://www.w3.org/1999/xlink" x="0px" y="0px"
	 viewBox="0 0 120 60" style="enable-background:new 0 0 120 60;" xml:space="preserve">
<style type="text/css">
	.st0{opacity:0.64;}
	.st1{opacity:0.8;fill:url(#SVGID_1_);}
	.st2{opacity:0.8;fill:url(#SVGID_2_);}
	.st3{fill-rule:evenodd;clip-rule:evenodd;fill:url(#SVGID_3_);}
	.st4{display:none;}
	.st5{display:inline;}
	.st6{fill:none;stroke:#61647E;stroke-width:0.8;stroke-miterlimit:10;}
	.st7{fill-rule:evenodd;clip-rule:evenodd;fill:none;stroke:#61647E;stroke-width:0.8;stroke-miterlimit:10;}
</style>
<g id="logoType" class="st0">
	<g id="logo">
		<linearGradient id="SVGID_1_" gradientUnits="userSpaceOnUse" x1="41.5408" y1="24.7141" x2="66.2339" y2="49.4072">
			<stop  offset="0" style="stop-color:#61647E;stop-opacity:0.2"/>
			<stop  offset="0.76" style="stop-color:#61647E"/>
		</linearGradient>
		<path class="st1" d="M74.2,41.5L74.2,41.5 M74.2,41.5L74.2,41.5L74.2,41.5C74.2,41.5,74.2,41.5,74.2,41.5 M45.6,24.2
			c-4.8,0-8.6,3.9-8.6,8.6c0,4.8,4.6,8.6,9.4,8.6l27.8,0C58.4,41.5,57,24.2,45.6,24.2"/>
		<linearGradient id="SVGID_2_" gradientUnits="userSpaceOnUse" x1="77.4087" y1="17.8028" x2="59.2065" y2="49.33">
			<stop  offset="0" style="stop-color:#61647E;stop-opacity:0.3"/>
			<stop  offset="1" style="stop-color:#61647E"/>
		</linearGradient>
		<path class="st2" d="M75.6,18.5c-12.2,0-18.7,22.9-30,22.9l28.6,0c0,0,0.1,0,0.1,0c6.3,0,12.8-5.1,12.8-11.5
			C87.1,23.7,81.9,18.5,75.6,18.5"/>
		<linearGradient id="SVGID_3_" gradientUnits="userSpaceOnUse" x1="64.3543" y1="35.9399" x2="87.0722" y2="35.9399">
			<stop  offset="0" style="stop-color:#61647E"/>
			<stop  offset="0.9996" style="stop-color:#61647E;stop-opacity:0"/>
		</linearGradient>
		<path class="st3" d="M87.1,30.6c-0.4,6.1-6.8,10.9-12.7,10.9l-10.1,0C75.1,41.3,80.1,28.8,87.1,30.6z"/>
	</g>
</g>
<g id="logoType_1_" class="st4">
	<g id="logo_1_" class="st5">
		<path class="st6" d="M50.6,42.8L50.6,42.8 M50.6,42.8L50.6,42.8L50.6,42.8C50.6,42.8,50.6,42.8,50.6,42.8 M18.5,23.6
			c-5.3,0-9.6,4.3-9.6,9.6c0,5.3,5.2,9.6,10.5,9.6l31.2,0C32.9,42.8,31.3,23.6,18.5,23.6"/>
		<path class="st6" d="M52.2,17.2c-13.7,0-21,25.7-33.7,25.7l32,0c0,0,0.1,0,0.1,0C57.8,42.8,65,37.1,65,30
			C65,22.9,59.3,17.2,52.2,17.2"/>
		<path class="st7" d="M65,30.7c-0.5,6.8-7.6,12.2-14.2,12.2l-11.3,0C51.7,42.7,57.2,28.7,65,30.7z"/>
	</g>
</g>
</svg>
